<svg xmlns="http://www.w3.org/2000/svg" xmlns:xlink="http://www.w3.org/1999/xlink" width="512" zoomAndPan="magnify" viewBox="0 0 384 383.999986" height="512" preserveAspectRatio="xMidYMid meet" version="1.2"><defs><clipPath id="2afff5b977"><path d="M 26.292969 26.292969 L 357.707031 26.292969 L 357.707031 357.707031 L 26.292969 357.707031 Z M 26.292969 26.292969 "/></clipPath><clipPath id="affcb31f49"><path d="M 192 26.292969 C 100.484375 26.292969 26.292969 100.484375 26.292969 192 C 26.292969 283.515625 100.484375 357.707031 192 357.707031 C 283.515625 357.707031 357.707031 283.515625 357.707031 192 C 357.707031 100.484375 283.515625 26.292969 192 26.292969 Z M 192 26.292969 "/></clipPath></defs><g id="54422321be"><g clip-rule="nonzero" clip-path="url(#2afff5b977)"><g clip-rule="nonzero" clip-path="url(#affcb31f49)"><path style=" stroke:none;fill-rule:nonzero;fill:#000000;fill-opacity:1;" d="M 26.292969 26.292969 L 357.707031 26.292969 L 357.707031 357.707031 L 26.292969 357.707031 Z M 26.292969 26.292969 "/></g></g><g style="fill:#ffffff;fill-opacity:1;"><g transform="translate(126.111326, 280.499978)"><path style="stroke:none" d="M 80.90625 0 L 62.671875 0 L 62.671875 -116.578125 C 62.671875 -121.003906 62.691406 -124.8125 62.734375 -128 C 62.773438 -131.1875 62.847656 -134.109375 62.953125 -136.765625 C 63.066406 -139.429688 63.238281 -142.15625 63.46875 -144.9375 C 61.132812 -142.53125 58.957031 -140.484375 56.9375 -138.796875 C 54.914062 -137.109375 52.40625 -135.03125 49.40625 -132.5625 L 30.609375 -117.484375 L 20.8125 -130.1875 L 65.375 -164.515625 L 80.90625 -164.515625 Z M 80.90625 0 "/></g></g></g></svg>