<svg xmlns="http://www.w3.org/2000/svg" xmlns:xlink="http://www.w3.org/1999/xlink" width="512" zoomAndPan="magnify" viewBox="0 0 384 383.999986" height="512" preserveAspectRatio="xMidYMid meet" version="1.2"><defs><clipPath id="959aeb1811"><path d="M 17.121094 39.5625 L 367 39.5625 L 367 345.601562 L 17.121094 345.601562 Z M 17.121094 39.5625 "/></clipPath><clipPath id="bedcf4686a"><path d="M 192 39.5625 L 366.878906 345.601562 L 17.121094 345.601562 Z M 192 39.5625 "/></clipPath></defs><g id="ae661d327b"><g clip-rule="nonzero" clip-path="url(#959aeb1811)"><g clip-rule="nonzero" clip-path="url(#bedcf4686a)"><path style=" stroke:none;fill-rule:nonzero;fill:#000000;fill-opacity:1;" d="M 17.121094 39.5625 L 367.390625 39.5625 L 367.390625 345.601562 L 17.121094 345.601562 Z M 17.121094 39.5625 "/></g></g><g style="fill:#ffffff;fill-opacity:1;"><g transform="translate(126.222652, 317.440052)"><path style="stroke:none" d="M 110.390625 -126.59375 C 110.390625 -119.3125 108.890625 -112.894531 105.890625 -107.34375 C 102.890625 -101.789062 98.78125 -97.253906 93.5625 -93.734375 C 88.351562 -90.210938 82.375 -87.8125 75.625 -86.53125 L 75.625 -85.859375 C 88.519531 -84.203125 98.378906 -79.976562 105.203125 -73.1875 C 112.035156 -66.40625 115.453125 -57.160156 115.453125 -45.453125 C 115.453125 -36.234375 113.273438 -28.019531 108.921875 -20.8125 C 104.578125 -13.613281 98.035156 -7.96875 89.296875 -3.875 C 80.554688 0.207031 69.582031 2.25 56.375 2.25 C 47.445312 2.25 39.15625 1.425781 31.5 -0.21875 C 23.851562 -1.875 16.878906 -4.164062 10.578125 -7.09375 L 10.578125 -18.234375 C 16.804688 -15.148438 23.988281 -12.613281 32.125 -10.625 C 40.257812 -8.644531 48.378906 -7.65625 56.484375 -7.65625 C 72.390625 -7.65625 84.207031 -11.085938 91.9375 -17.953125 C 99.664062 -24.816406 103.53125 -34.023438 103.53125 -45.578125 C 103.53125 -53.972656 101.460938 -60.703125 97.328125 -65.765625 C 93.203125 -70.828125 87.40625 -74.519531 79.9375 -76.84375 C 72.476562 -79.175781 63.722656 -80.34375 53.671875 -80.34375 L 35.671875 -80.34375 L 35.671875 -90.359375 L 53.78125 -90.359375 C 62.257812 -90.359375 69.875 -91.6875 76.625 -94.34375 C 83.375 -97.007812 88.71875 -100.988281 92.65625 -106.28125 C 96.601562 -111.570312 98.578125 -118.15625 98.578125 -126.03125 C 98.578125 -136.226562 95.332031 -143.914062 88.84375 -149.09375 C 82.351562 -154.269531 73.707031 -156.859375 62.90625 -156.859375 C 57.125 -156.859375 51.703125 -156.257812 46.640625 -155.0625 C 41.578125 -153.863281 36.703125 -152.117188 32.015625 -149.828125 C 27.328125 -147.535156 22.65625 -144.78125 18 -141.5625 L 12.15625 -149.765625 C 18.601562 -154.722656 26.046875 -158.8125 34.484375 -162.03125 C 42.921875 -165.257812 52.359375 -166.875 62.796875 -166.875 C 77.722656 -166.875 89.382812 -163.269531 97.78125 -156.0625 C 106.1875 -148.863281 110.390625 -139.039062 110.390625 -126.59375 Z M 110.390625 -126.59375 "/></g></g></g></svg>