<svg xmlns="http://www.w3.org/2000/svg" xmlns:xlink="http://www.w3.org/1999/xlink" width="512" zoomAndPan="magnify" viewBox="0 0 384 383.999986" height="512" preserveAspectRatio="xMidYMid meet" version="1.2"><defs><clipPath id="aa223e92b0"><path d="M 49.730469 26.449219 L 334.269531 26.449219 L 334.269531 357.671875 L 49.730469 357.671875 Z M 49.730469 26.449219 "/></clipPath><clipPath id="502d15c709"><path d="M 192 26.449219 L 334.269531 109.226562 L 334.269531 274.773438 L 192 357.550781 L 49.730469 274.773438 L 49.730469 109.226562 Z M 192 26.449219 "/></clipPath></defs><g id="e8b3e14ce8"><g clip-rule="nonzero" clip-path="url(#aa223e92b0)"><g clip-rule="nonzero" clip-path="url(#502d15c709)"><path style=" stroke:none;fill-rule:nonzero;fill:#000000;fill-opacity:1;" d="M 49.730469 26.449219 L 334.269531 26.449219 L 334.269531 357.671875 L 49.730469 357.671875 Z M 49.730469 26.449219 "/></g></g><g style="fill:#ffffff;fill-opacity:1;"><g transform="translate(119.747335, 280.499978)"><path style="stroke:none" d="M 14.515625 -70.109375 C 14.515625 -82.410156 15.46875 -93.640625 17.375 -103.796875 C 19.289062 -113.960938 22.125 -122.96875 25.875 -130.8125 C 29.625 -138.65625 34.347656 -145.273438 40.046875 -150.671875 C 45.753906 -156.078125 52.429688 -160.164062 60.078125 -162.9375 C 67.734375 -165.707031 76.328125 -167.09375 85.859375 -167.09375 C 89.984375 -167.09375 93.921875 -166.867188 97.671875 -166.421875 C 101.421875 -165.972656 104.722656 -165.335938 107.578125 -164.515625 L 107.578125 -154.15625 C 104.796875 -155.132812 101.566406 -155.90625 97.890625 -156.46875 C 94.222656 -157.03125 90.285156 -157.3125 86.078125 -157.3125 C 73.179688 -157.3125 62.34375 -154.328125 53.5625 -148.359375 C 44.78125 -142.398438 38.082031 -133.507812 33.46875 -121.6875 C 28.863281 -109.875 26.296875 -95.226562 25.765625 -77.75 L 26.5625 -77.75 C 28.726562 -81.800781 31.78125 -85.664062 35.71875 -89.34375 C 39.664062 -93.019531 44.582031 -96.019531 50.46875 -98.34375 C 56.351562 -100.675781 63.3125 -101.84375 71.34375 -101.84375 C 81.238281 -101.84375 89.769531 -99.851562 96.9375 -95.875 C 104.101562 -91.894531 109.617188 -86.191406 113.484375 -78.765625 C 117.347656 -71.335938 119.28125 -62.523438 119.28125 -52.328125 C 119.28125 -41.367188 117.269531 -31.800781 113.25 -23.625 C 109.238281 -15.445312 103.460938 -9.085938 95.921875 -4.546875 C 88.390625 -0.015625 79.332031 2.25 68.75 2.25 C 59.75 2.25 51.875 0.410156 45.125 -3.265625 C 38.375 -6.941406 32.726562 -12.078125 28.1875 -18.671875 C 23.644531 -25.273438 20.226562 -32.945312 17.9375 -41.6875 C 15.65625 -50.425781 14.515625 -59.898438 14.515625 -70.109375 Z M 68.640625 -7.65625 C 81.015625 -7.65625 90.632812 -11.535156 97.5 -19.296875 C 104.363281 -27.054688 107.796875 -38.066406 107.796875 -52.328125 C 107.796875 -64.628906 104.644531 -74.359375 98.34375 -81.515625 C 92.039062 -88.679688 82.515625 -92.265625 69.765625 -92.265625 C 60.910156 -92.265625 53.273438 -90.5 46.859375 -86.96875 C 40.453125 -83.445312 35.519531 -79.078125 32.0625 -73.859375 C 28.613281 -68.648438 26.890625 -63.535156 26.890625 -58.515625 C 26.890625 -53.785156 27.5625 -48.53125 28.90625 -42.75 C 30.257812 -36.976562 32.550781 -31.410156 35.78125 -26.046875 C 39.007812 -20.679688 43.304688 -16.273438 48.671875 -12.828125 C 54.035156 -9.378906 60.691406 -7.65625 68.640625 -7.65625 Z M 68.640625 -7.65625 "/></g></g></g></svg>