<?xml version="1.0" encoding="utf-8"?>
<svg fill="#000000" height="800px" width="800px" version="1.1" id="Capa_1" xmlns="http://www.w3.org/2000/svg" viewBox="0 0 277.112 277.112">
  <g>
    <path d="M 263.975 130.419 C 263.975 129.007 263.993 128.471 262.803 127.591 L 141.384 6.172 C 140.504 4.982 139.968 5 138.556 5 C 137.144 5 136.608 4.982 135.728 6.172 L 86 55.899 L 86 36.596 C 86.218 35.132 85.827 34.766 84.829 33.767 C 83.83 32.769 83.464 32.378 82 32.596 L 54.928 32.596 C 53.464 32.378 53.098 32.769 52.099 33.767 C 51.101 34.766 50.71 35.132 50.928 36.596 L 50.928 90.972 L 14.31 127.591 C 13.12 128.471 13.138 129.007 13.138 130.419 C 13.138 131.831 13.274 132.212 14.31 133.247 C 15.345 134.283 15.726 134.419 17.138 134.419 C 18.55 134.419 19.086 134.437 19.966 133.247 L 138.556 14.657 L 257.147 133.247 C 258.027 134.436 258.563 134.419 259.975 134.419 C 261.387 134.419 261.922 134.437 262.804 133.247 C 263.993 132.366 263.975 131.831 263.975 130.419 Z M 78 63.898 L 58.927 82.971 L 58.927 40.595 L 78 40.595 Z"/>
    <path d="M 141.623 50.83 C 140.112 49.38 139.644 49.422 138.556 49.422 C 137.298 49.422 136.815 49.456 135.523 50.796 L 35.81 150.509 C 34.505 151.837 34.389 152.226 34.445 153.783 L 34.448 267.828 C 34.52 269.99 34.42 270.34 35.436 270.781 C 36.097 271.84 36.787 272.097 38.701 272.112 L 111.534 272.112 C 113.695 272.04 114.045 272.14 114.486 271.124 C 115.545 270.463 115.802 269.773 115.817 267.858 L 115.819 212.285 L 115.82 207.286 L 161.296 207.286 L 161.296 267.827 C 161.369 269.989 161.268 270.341 162.284 270.782 C 162.945 271.84 163.635 272.097 165.549 272.112 L 238.381 272.112 C 240.542 272.04 240.892 272.14 241.333 271.124 C 242.392 270.463 242.649 269.773 242.664 267.859 L 242.664 153.81 C 242.639 151.91 242.456 151.582 241.314 150.518 Z M 169.296 203.539 C 169.281 201.625 169.024 200.935 167.965 200.274 C 167.524 199.258 167.174 199.358 165.013 199.286 L 112.07 199.286 C 110.156 199.301 109.466 199.558 108.805 200.617 C 107.789 201.058 107.889 201.409 107.817 203.571 L 107.817 264.112 L 42.448 264.112 L 42.448 155.187 L 138.556 59.079 L 234.664 155.187 L 234.664 264.112 L 169.299 264.112 L 169.298 259.113 Z"/>
  </g>
</svg>