<?xml version="1.0" encoding="iso-8859-1"?>
<!-- Uploaded to: SVG Repo, www.svgrepo.com, Generator: SVG Repo Mixer Tools -->
<svg height="800px" width="800px" version="1.1" id="Layer_1" xmlns="http://www.w3.org/2000/svg" xmlns:xlink="http://www.w3.org/1999/xlink" 
	 viewBox="0 0 512 512" xml:space="preserve">
<circle style="fill:#1E495F;" cx="256" cy="256" r="256"/>
<path style="fill:#1D384E;" d="M503.019,323.382L256,76.363c0-1.067,10.974,137.406,17.115,214.994
	c-38.999,15.787-187.75,76.13-186.389,77.492l141.665,141.665C237.462,511.487,246.671,512,256,512
	C374.062,512,473.439,432.073,503.019,323.382z"/>
<polygon style="fill:#FF8468;" points="86.727,368.849 256,76.363 425.273,368.849 "/>
<polygon style="fill:#FF7056;" points="256,76.363 255.652,76.965 255.652,368.849 425.273,368.849 "/>
<polygon style="fill:#FFD153;" points="314.004,176.588 256,76.363 197.996,176.588 "/>
<polygon style="fill:#F7CB09;" points="256,76.363 255.652,76.965 255.652,176.588 314.004,176.588 "/>
<polygon style="fill:#5ADFA8;" points="135.104,285.257 376.896,285.257 314.004,176.588 197.996,176.588 "/>
<polygon style="fill:#00BEA5;" points="314.004,176.588 255.652,176.588 255.652,285.257 376.896,285.257 "/>
</svg>