<svg width="35" height="35" xmlns="http://www.w3.org/2000/svg" xmlns:xlink="http://www.w3.org/1999/xlink" xml:space="preserve" overflow="hidden"><g transform="translate(-664 -415)"><path d="M689.888 417.104 666.424 440.566 673.385 447.526 696.812 424.1ZM667.455 440.566 689.885 418.138 695.784 424.098 693.236 426.646 689.885 423.295 689.37 423.811 692.721 427.161 690.4 429.481 688.338 427.42 687.823 427.935 689.885 429.997 687.564 432.318 684.213 428.967 683.698 429.483 687.048 432.833 684.728 435.153 682.667 433.091 682.151 433.607 684.213 435.668 681.892 437.988 678.542 434.638 678.026 435.153 681.376 438.504 679.057 440.824 676.996 438.763 676.48 439.278 678.542 441.339 676.221 443.66 672.87 440.309 672.355 440.825 675.703 444.175 673.383 446.495Z" fill="#FFFFFF"/></g></svg>