<?xml version="1.0" encoding="iso-8859-1"?>
<!-- Uploaded to: SVG Repo, www.svgrepo.com, Generator: SVG Repo Mixer Tools -->
<svg fill="#000000" height="800px" width="800px" version="1.1" id="Layer_1" xmlns="http://www.w3.org/2000/svg" xmlns:xlink="http://www.w3.org/1999/xlink" 
	 viewBox="0 0 511.999 511.999" xml:space="preserve">
<g>
	<g>
		<g>
			<path d="M446.653,67.763c-72.685-5.511-132.36-26.769-182.435-64.986c-4.855-3.703-11.584-3.703-16.435,0
				c-50.074,38.217-109.75,59.475-182.436,64.986c-7.065,0.535-12.522,6.423-12.522,13.506v196.402
				c0,44.627,33.398,97.509,99.266,157.179c47.672,43.185,94.574,73.697,96.547,74.974c2.239,1.451,4.8,2.175,7.362,2.175
				s5.121-0.725,7.363-2.175c1.972-1.277,48.874-31.789,96.546-74.974c65.868-59.67,99.266-112.552,99.266-157.179V81.269
				C459.174,74.187,453.717,68.299,446.653,67.763z M432.084,277.671c0,70.936-120.775,167.222-176.085,204.54
				c-55.31-37.318-176.085-133.604-176.085-204.54V93.667C148.564,86.702,206.374,65.925,256,30.387
				c49.626,35.537,107.437,56.315,176.085,63.279V277.671z"/>
			<path d="M150.57,313.347c-4.264-6.147-12.704-7.673-18.851-3.409c-6.147,4.264-7.673,12.704-3.409,18.851
				c13.953,20.113,33.858,41.985,59.166,65.013c2.597,2.362,5.858,3.527,9.112,3.527c3.682,0,7.349-1.493,10.022-4.429
				c5.035-5.533,4.63-14.1-0.903-19.134C181.909,352.11,163.357,331.783,150.57,313.347z"/>
			<path d="M248.974,67.48c-39.165,23.759-81.948,39.534-130.797,48.226c-6.464,1.151-11.172,6.771-11.172,13.336v126.957
				c0,7.481,6.064,13.545,13.545,13.545h121.905V432.26c0,7.481,6.078,13.559,13.559,13.559c2.899,0,5.72-0.931,8.051-2.652
				c21.526-15.911,41.53-32.217,59.461-48.465c51.774-46.908,81.469-89.563,81.469-117.03v-21.672
				c0-7.481-6.065-13.545-13.545-13.545H269.545V79.061c0-4.891-2.637-9.403-6.9-11.803
				C258.382,64.859,253.158,64.943,248.974,67.48z M242.455,242.454h-108.36V140.253c39.367-7.975,75.092-20.488,108.36-37.977
				V242.454z M269.545,269.544h108.36v8.127c0,11.592-15.283,45.056-72.567,96.955c-11.133,10.087-23.112,20.209-35.793,30.25
				V269.544z"/>
			<path d="M315.343,122.596c19.777,7.297,40.773,13.22,62.562,17.652v53.444c0,7.481,6.065,13.545,13.545,13.545
				c7.479,0,13.545-6.064,13.545-13.545v-64.65c0-6.565-4.708-12.185-11.172-13.335c-24.217-4.31-47.466-10.543-69.102-18.527
				c-7.022-2.59-14.809,1.001-17.397,8.019C304.733,112.218,308.324,120.006,315.343,122.596z"/>
		</g>
	</g>
</g>
</svg>