<svg xmlns="http://www.w3.org/2000/svg" xmlns:xlink="http://www.w3.org/1999/xlink" width="512" zoomAndPan="magnify" viewBox="0 0 384 383.999986" height="512" preserveAspectRatio="xMidYMid meet" version="1.2"><defs><clipPath id="cfc77eabf5"><path d="M 27.332031 27.332031 L 356.667969 27.332031 L 356.667969 356.667969 L 27.332031 356.667969 Z M 27.332031 27.332031 "/></clipPath><clipPath id="f00342d3e9"><path d="M 192 27.332031 L 356.667969 192 L 192 356.667969 L 27.332031 192 Z M 192 27.332031 "/></clipPath></defs><g id="06c2ac3c43"><g clip-rule="nonzero" clip-path="url(#cfc77eabf5)"><g clip-rule="nonzero" clip-path="url(#f00342d3e9)"><path style=" stroke:none;fill-rule:nonzero;fill:#000000;fill-opacity:1;" d="M 27.332031 27.332031 L 356.667969 27.332031 L 356.667969 356.667969 L 27.332031 356.667969 Z M 27.332031 27.332031 "/></g></g><g style="fill:#ffffff;fill-opacity:1;"><g transform="translate(109.566738, 265.104354)"><path style="stroke:none" d="M 128.390625 -41.96875 L 100.03125 -41.96875 L 100.03125 0 L 88.890625 0 L 88.890625 -41.96875 L 5.40625 -41.96875 L 5.40625 -50.96875 L 88.109375 -165.40625 L 100.03125 -165.40625 L 100.03125 -52.4375 L 128.390625 -52.4375 Z M 88.890625 -52.4375 L 88.890625 -115.671875 C 88.890625 -120.328125 88.910156 -124.34375 88.953125 -127.71875 C 88.992188 -131.09375 89.050781 -134.148438 89.125 -136.890625 C 89.195312 -139.628906 89.269531 -142.269531 89.34375 -144.8125 C 89.414062 -147.363281 89.492188 -149.992188 89.578125 -152.703125 L 88.890625 -152.703125 C 86.796875 -149.097656 84.828125 -145.773438 82.984375 -142.734375 C 81.148438 -139.703125 78.804688 -136.269531 75.953125 -132.4375 L 17.890625 -52.4375 Z M 88.890625 -52.4375 "/></g></g></g></svg>