<svg xmlns="http://www.w3.org/2000/svg" xmlns:xlink="http://www.w3.org/1999/xlink" width="512" zoomAndPan="magnify" viewBox="0 0 384 383.999986" height="512" preserveAspectRatio="xMidYMid meet" version="1.2"><defs><clipPath id="9796fcd0e4"><path d="M 26.507812 26.507812 L 357.492188 26.507812 L 357.492188 357.492188 L 26.507812 357.492188 Z M 26.507812 26.507812 "/></clipPath><clipPath id="94eda928e6"><path d="M 192 26.507812 L 357.492188 152.933594 L 294.277344 357.492188 L 89.722656 357.492188 L 26.507812 152.933594 Z M 192 26.507812 "/></clipPath></defs><g id="826c63d0ff"><g clip-rule="nonzero" clip-path="url(#9796fcd0e4)"><g clip-rule="nonzero" clip-path="url(#94eda928e6)"><path style=" stroke:none;fill-rule:nonzero;fill:#000000;fill-opacity:1;" d="M 26.507812 26.507812 L 357.492188 26.507812 L 357.492188 357.492188 L 26.507812 357.492188 Z M 26.507812 26.507812 "/></g></g><g style="fill:#ffffff;fill-opacity:1;"><g transform="translate(126.222652, 288.054587)"><path style="stroke:none" d="M 63.234375 -99.140625 C 74.335938 -99.140625 83.921875 -97.257812 91.984375 -93.5 C 100.054688 -89.75 106.285156 -84.289062 110.671875 -77.125 C 115.054688 -69.96875 117.25 -61.210938 117.25 -50.859375 C 117.25 -39.910156 114.8125 -30.457031 109.9375 -22.5 C 105.0625 -14.550781 98.175781 -8.4375 89.28125 -4.15625 C 80.394531 0.113281 69.914062 2.25 57.84375 2.25 C 49.132812 2.25 41.234375 1.40625 34.140625 -0.28125 C 27.054688 -1.96875 21.078125 -4.238281 16.203125 -7.09375 L 16.203125 -18.5625 C 21.453125 -15.414062 27.734375 -12.828125 35.046875 -10.796875 C 42.359375 -8.773438 49.992188 -7.765625 57.953125 -7.765625 C 67.554688 -7.765625 75.921875 -9.394531 83.046875 -12.65625 C 90.171875 -15.914062 95.703125 -20.695312 99.640625 -27 C 103.578125 -33.300781 105.546875 -41.03125 105.546875 -50.1875 C 105.546875 -62.414062 101.832031 -71.960938 94.40625 -78.828125 C 86.976562 -85.691406 75.765625 -89.125 60.765625 -89.125 C 54.609375 -89.125 48.734375 -88.691406 43.140625 -87.828125 C 37.554688 -86.960938 32.363281 -85.894531 27.5625 -84.625 L 21.046875 -89.234375 L 27.6875 -164.515625 L 106.671875 -164.515625 L 106.671875 -153.9375 L 37.46875 -153.9375 L 32.40625 -95.3125 C 35.78125 -96.132812 40.035156 -96.976562 45.171875 -97.84375 C 50.316406 -98.707031 56.335938 -99.140625 63.234375 -99.140625 Z M 63.234375 -99.140625 "/></g></g></g></svg>