<?xml version="1.0" encoding="utf-8"?>
<svg fill="#000000" height="800px" width="800px" version="1.1" id="Capa_1" xmlns="http://www.w3.org/2000/svg" viewBox="0 0 384.97 384.97">
  <g>
    <g id="Arrow_Left_Circle">
      <path d="M 325.106 59.963 C 291.129 25.553 244.614 5 192.485 5 C 140.363 5 93.947 25.423 59.961 59.868 C 25.553 93.847 5 140.362 5 192.485 C 5 244.613 25.423 291.029 59.868 325.012 C 93.848 359.419 140.363 379.97 192.485 379.97 C 244.606 379.97 290.937 359.4 325.046 325.072 C 359.36 290.963 379.97 244.607 379.97 192.485 C 379.97 140.363 359.551 93.948 325.106 59.963 Z M 192.485 365.909 C 144.961 365.909 101.148 345.907 69.801 315.058 C 38.954 283.713 19.061 240.01 19.061 192.485 C 19.061 144.961 39.064 101.148 69.912 69.801 C 101.257 38.954 144.96 19.061 192.485 19.061 C 240.009 19.061 283.822 39.064 315.17 69.912 C 346.016 101.257 365.909 144.96 365.909 192.485 C 365.909 240.009 345.906 283.822 315.058 315.17 C 283.713 346.016 240.01 365.909 192.485 365.909 Z"/>
      <path d="M 307.788 192.365 C 307.788 194.378 307.151 195.735 305.534 197.605 C 304.227 198.834 302.849 199.277 300.107 199.516 L 101.231 199.516 L 171.965 271.372 C 173.869 273.62 174.243 274.969 174.243 276.571 C 174.243 278.256 173.933 279.469 172.145 281.589 C 170.227 283.162 168.893 283.636 167.077 283.727 C 165.48 283.599 163.965 282.949 161.778 281.162 L 79.344 197.443 C 77.549 195.326 77.182 194.161 77.182 192.377 C 77.182 190.894 77.843 189.154 79.837 186.731 L 162.182 103.281 C 164.395 101.387 165.678 101.032 167.217 101.032 C 168.835 101.032 170.022 101.339 172.129 103.141 C 173.88 105.279 174.246 106.596 174.246 108.176 C 174.246 109.467 173.552 111.321 171.467 113.966 L 101.226 185.219 L 300.528 185.292 C 302.896 185.536 304.383 186.173 305.739 187.361 L 305.829 187.471 L 305.876 187.511 C 307.302 189.232 307.788 190.488 307.788 192.365 Z M 174.524 274.656 L 168.162 266.473 L 171.343 270.621 L 171.78 271.117 C 171.571 270.88 171.435 270.738 171.462 270.773 L 174.524 274.656 Z M 165.241 100.531 L 157.253 107.154 L 161.437 103.907 L 160.564 104.462 C 161.003 104.183 161.714 103.667 161.921 103.483 L 165.241 100.531 Z"/>
    </g>
    <g/>
    <g/>
    <g/>
    <g/>
    <g/>
    <g/>
  </g>
</svg>