<svg width="48" height="48" xmlns="http://www.w3.org/2000/svg" xmlns:xlink="http://www.w3.org/1999/xlink" xml:space="preserve" overflow="hidden"><g transform="translate(-657 -486)"><path d="M700.05 507.5 699.5 507.5 699.5 504.5C699.498 503.12 698.38 502.002 697 502L696.5 502C695.957 502.002 695.43 502.182 695 502.513L695 500C694.998 498.62 693.88 497.502 692.5 497.5L691.5 497.5C690.12 497.502 689.002 498.62 689 500L689 507 673 507 673 500C672.998 498.62 671.88 497.502 670.5 497.5L669.5 497.5C668.12 497.502 667.002 498.62 667 500L667 502.513C666.57 502.182 666.043 502.002 665.5 502L665 502C663.62 502.002 662.502 503.12 662.5 504.5L662.5 507.5 661.95 507.5C660.597 507.501 659.501 508.597 659.5 509.95L659.5 510.05C659.501 511.402 660.597 512.499 661.95 512.5L662.5 512.5 662.5 515.5C662.502 516.88 663.62 517.998 665 518L665.5 518C666.043 517.998 666.57 517.818 667 517.487L667 520C667.002 521.38 668.12 522.498 669.5 522.5L670.5 522.5C671.88 522.498 672.998 521.38 673 520L673 513 689 513 689 520C689.002 521.38 690.12 522.498 691.5 522.5L692.5 522.5C693.88 522.498 694.998 521.38 695 520L695 517.487C695.43 517.818 695.957 517.998 696.5 518L697 518C698.38 517.998 699.498 516.88 699.5 515.5L699.5 512.5 700.05 512.5C701.403 512.499 702.499 511.403 702.5 510.05L702.5 509.95C702.499 508.598 701.403 507.501 700.05 507.5ZM661.95 511.5C661.149 511.5 660.5 510.851 660.5 510.05L660.5 509.95C660.5 509.149 661.149 508.5 661.95 508.5L662.5 508.5 662.5 511.5ZM665.5 517 665 517C664.172 517 663.5 516.328 663.5 515.5L663.5 504.5C663.5 503.672 664.172 503 665 503L665.5 503C666.328 503 667 503.672 667 504.5L667 515.5C667 516.328 666.328 517 665.5 517ZM672 520C672 520.828 671.328 521.5 670.5 521.5L669.5 521.5C668.672 521.5 668 520.828 668 520L668 500C668 499.172 668.672 498.5 669.5 498.5L670.5 498.5C671.328 498.5 672 499.172 672 500L672 520ZM673 512 673 508 689 508 689 512ZM694 520C694 520.828 693.328 521.5 692.5 521.5L691.5 521.5C690.672 521.5 690 520.828 690 520L690 500C690 499.172 690.672 498.5 691.5 498.5L692.5 498.5C693.328 498.5 694 499.172 694 500L694 520ZM698.5 515.5C698.5 516.328 697.828 517 697 517L696.5 517C695.672 517 695 516.328 695 515.5L695 504.5C695 503.672 695.672 503 696.5 503L697 503C697.828 503 698.5 503.672 698.5 504.5L698.5 515.5ZM701.5 510.05C701.5 510.851 700.851 511.5 700.05 511.5L699.5 511.5 699.5 508.5 700.05 508.5C700.851 508.5 701.5 509.149 701.5 509.95Z" fill="#FFFFFF"/></g></svg>