<svg width="60" height="60" xmlns="http://www.w3.org/2000/svg" xmlns:xlink="http://www.w3.org/1999/xlink" xml:space="preserve" overflow="hidden"><g transform="translate(-528 -6)"><path d="M557.987 12.25C544.877 12.25 534.25 22.8774 534.25 35.9869 534.25 49.0964 544.877 59.7238 557.987 59.7238 571.096 59.7238 581.724 49.0964 581.724 35.9869 581.73 22.8833 571.112 12.2559 558.008 12.25 558.001 12.25 557.994 12.25 557.987 12.25ZM557.987 58.4738C545.568 58.4738 535.5 48.4061 535.5 35.9869 535.5 23.5677 545.568 13.5 557.987 13.5 570.406 13.5 580.474 23.5677 580.474 35.9869 580.46 48.4002 570.4 58.4596 557.987 58.4738Z" fill="#FFFFFF"/><path d="M558.625 27.875 553.625 27.875 553.625 29.125 557.375 29.125 557.375 47.875 553 47.875 553 49.125 563 49.125 563 47.875 558.625 47.875 558.625 27.875Z" fill="#FFFFFF"/><path d="M558.665 22.5625C558.665 23.3392 558.035 23.9688 557.259 23.9688 556.482 23.9688 555.852 23.3392 555.852 22.5625 555.852 21.7858 556.482 21.1562 557.259 21.1562 558.035 21.1562 558.665 21.7858 558.665 22.5625Z" fill="#FFFFFF"/></g></svg>