<svg version="1.2" xmlns="http://www.w3.org/2000/svg" viewBox="32 32.000000000000014 436 435.99999999999994" width="436" height="436">
	<title>sweepem</title>
	<style>
		.s0 { fill: #0f3d47 } 
		.s1 { fill: #2f5661 } 
		.s2 { fill: #3c6b78 } 
		.s3 { fill: #03a688 } 
		.s4 { fill: #007a64 } 
		.s5 { fill: #fffd91 } 
		.s6 { fill: none } 
	</style>
	<g id="Layer 1">
		<path class="s0" d="m250 468.1c-120.6 0-218.1-97.5-218.1-218.1 0-120.6 97.5-218.1 218.1-218.1 120.6 0 218.1 97.5 218.1 218.1 0 120.6-97.5 218.1-218.1 218.1z"/>
		<path class="s1" d="m468.1 250c0-23.3-3.7-45.8-10.5-66.9l-22.1-12.9h-95.8l-138.8 240.1 99.5 51.9c96.2-22.8 167.7-109.1 167.7-212.2z"/>
		<path class="s2" d="m468.1 250c0-18-2.2-35.6-6.4-52.3l-4.4-14.6-22.1-12.9-138.4 240.1 57.6 31.1h0.2c67.6-37.1 113.5-108.9 113.5-191.4z"/>
		<path class="s3" d="m200.9 410.3l-138.6-240.1h277.2z"/>
		<path class="s4" d="m296.9 410.3l-138.7-240.1h277.3z"/>
		<path class="s5" d="m249 327.2l-90.7-157h181.4z"/>
		<g style="opacity: .43">
			<path class="s6" d="m435.5 170.2l-138.6 240.1-48-83.2-48 83.2-138.6-240.1z"/>
		</g>
	</g>
</svg>