<svg width="49" height="49" xmlns="http://www.w3.org/2000/svg" xmlns:xlink="http://www.w3.org/1999/xlink" xml:space="preserve" overflow="hidden"><g transform="translate(-681 -333)"><path d="M721.787 343.608C718.257 343.595 715.265 341.005 714.748 337.513 714.712 337.262 714.497 337.075 714.242 337.075L696.666 337.075C696.412 337.075 696.196 337.262 696.16 337.513 695.643 341.005 692.651 343.595 689.121 343.608 688.839 343.608 688.61 343.837 688.61 344.118 688.61 371.409 699.031 375.751 705.258 378.345 705.383 378.398 705.525 378.398 705.65 378.345 711.877 375.751 722.298 371.409 722.298 344.118 722.298 343.837 722.069 343.608 721.787 343.608ZM705.454 377.321C699.116 374.678 689.75 370.51 689.631 344.612 693.302 344.367 696.357 341.7 697.096 338.095L713.812 338.095C714.55 341.7 717.605 344.367 721.276 344.612 721.158 370.51 711.792 374.678 705.454 377.321Z" fill="#FFFFFF"/><path d="M712.763 339.954 712.637 339.627 698.27 339.627 698.144 339.954C697.018 342.855 694.573 345.043 691.566 345.842L691.177 345.944 691.186 346.346C691.696 369.761 700.515 373.542 705.253 375.573L705.454 375.66 705.655 375.573C710.392 373.542 719.211 369.761 719.722 346.346L719.73 345.944 719.342 345.842C716.334 345.043 713.89 342.855 712.763 339.954ZM705.454 374.548C700.911 372.596 692.792 368.792 692.216 346.716 695.25 345.787 697.72 343.566 698.967 340.648L711.943 340.648C713.188 343.567 715.658 345.788 718.692 346.718 718.116 368.794 709.997 372.598 705.454 374.548Z" fill="#FFFFFF"/><path d="M705.454 342.621C705.015 342.621 704.659 342.977 704.659 343.417 704.659 343.856 705.015 344.212 705.454 344.212 705.893 344.212 706.249 343.856 706.249 343.417 706.249 342.978 705.893 342.622 705.454 342.621Z" fill="#FFFFFF"/><path d="M711.02 343.417C711.02 343.856 710.664 344.212 710.225 344.212 709.786 344.212 709.43 343.856 709.43 343.417 709.43 342.977 709.786 342.621 710.225 342.621 710.664 342.621 711.02 342.977 711.02 343.417Z" fill="#FFFFFF"/><path d="M701.477 343.365C701.505 343.804 701.172 344.182 700.734 344.21 700.296 344.238 699.918 343.906 699.889 343.468 699.861 343.029 700.193 342.651 700.632 342.623 701.07 342.595 701.448 342.927 701.477 343.365Z" fill="#FFFFFF"/><path d="M695.649 348.718C695.649 348.279 695.293 347.923 694.854 347.923 694.414 347.923 694.058 348.279 694.058 348.718 694.058 349.157 694.414 349.513 694.854 349.513 695.293 349.512 695.648 349.157 695.649 348.718Z" fill="#FFFFFF"/><path d="M695.382 354.814C694.943 354.814 694.587 355.17 694.586 355.609 694.586 356.048 694.942 356.404 695.381 356.405 695.82 356.405 696.176 356.05 696.177 355.611 696.178 355.172 695.822 354.815 695.383 354.814 695.382 354.814 695.382 354.814 695.382 354.814Z" fill="#FFFFFF"/><path d="M697.767 361.971C697.767 362.41 697.411 362.766 696.972 362.766 696.533 362.766 696.177 362.41 696.177 361.971 696.177 361.532 696.533 361.176 696.972 361.176 697.411 361.176 697.767 361.532 697.767 361.971Z" fill="#FFFFFF"/><path d="M700.153 367.007C699.714 367.007 699.358 367.363 699.358 367.802 699.358 368.241 699.714 368.597 700.153 368.597 700.592 368.597 700.948 368.241 700.948 367.802 700.948 367.363 700.592 367.007 700.153 367.007Z" fill="#FFFFFF"/><path d="M705.454 370.72C705.015 370.72 704.659 371.076 704.659 371.515 704.659 371.954 705.015 372.31 705.454 372.31 705.893 372.31 706.249 371.954 706.249 371.515 706.249 371.515 706.249 371.515 706.249 371.515 706.249 371.076 705.893 370.72 705.454 370.72Z" fill="#FFFFFF"/><path d="M716.056 349.513C716.496 349.513 716.852 349.157 716.852 348.718 716.852 348.279 716.496 347.923 716.056 347.923 715.617 347.923 715.261 348.279 715.261 348.718 715.262 349.157 715.617 349.512 716.056 349.513Z" fill="#FFFFFF"/><path d="M715.526 356.405C715.965 356.405 716.321 356.049 716.321 355.609 716.321 355.17 715.965 354.814 715.526 354.814 715.087 354.814 714.731 355.17 714.731 355.609 714.731 355.61 714.731 355.611 714.731 355.611 714.733 356.05 715.088 356.404 715.526 356.405Z" fill="#FFFFFF"/><path d="M713.14 361.971C713.141 362.41 713.497 362.766 713.936 362.765 714.375 362.765 714.731 362.409 714.731 361.97 714.731 361.531 714.375 361.175 713.936 361.175 713.497 361.176 713.141 361.532 713.14 361.971Z" fill="#FFFFFF"/><path d="M710.757 367.007C710.318 367.007 709.962 367.363 709.962 367.802 709.962 368.241 710.318 368.597 710.757 368.597 711.197 368.597 711.553 368.241 711.553 367.802 711.552 367.363 711.196 367.007 710.757 367.007Z" fill="#FFFFFF"/></g></svg>